<svg xmlns="http://www.w3.org/2000/svg" viewBox="0 0 48 64" width="48" height="64" xmlns:c2pa="http://c2pa.org/manifest"><metadata><c2pa:manifest>AAAWgmp1bWIAAAAeanVtZGMycGEAEQAQgAAAqgA4m3EDYzJwYQAAABZcanVtYgAAAEdqdW1kYzJtYQARABCAAACqADibcQN1cm46YzJwYTphOWRiNTI2YS1iNDI2LTRkNTgtOTQ4Ny0zNGZkYWFiNTMxODgAAAADl2p1bWIAAAApanVtZGMyYXMAEQAQgAAAqgA4m3EDYzJwYS5hc3NlcnRpb25zAAAAALxqdW1iAAAARGp1bWRjYm9yABEAEIAAAKoAOJtxE2MycGEuaW5ncmVkaWVudC52MwAAAAAYYzJzaBECpwmXPWgkcFxM2g1qRxoAAABwY2JvcqNpZGM6Zm9ybWF0bWltYWdlL3N2Zyt4bWxqaW5zdGFuY2VJRHgseG1wOmlpZDoxZjI5MjZkYi0xZDM1LTQwZDQtYWNjZi02ZWY5MjU5ZDUyMjVscmVsYXRpb25zaGlwaHBhcmVudE9mAAAB4mp1bWIAAABBanVtZGNib3IAEQAQgAAAqgA4m3ETYzJwYS5hY3Rpb25zLnYyAAAAABhjMnNonmX8sb1xhwB7oDB5cs5XTAAAAZljYm9yomdhY3Rpb25zgqJmYWN0aW9ua2MycGEub3BlbmVkanBhcmFtZXRlcnOha2luZ3JlZGllbnRzgaJjdXJseC1zZWxmI2p1bWJmPWMycGEuYXNzZXJ0aW9ucy9jMnBhLmluZ3JlZGllbnQudjNkaGFzaFggb1DZKopBZer3BOQ0iAU0tuMyQzJ50iFvuqyaavHdOB2kZmFjdGlvbngdY29tLmFudGhyb3BpYy5jbGF1ZGUucHJvdmlkZWRqcGFyYW1ldGVyc6F4H2NvbS5hbnRocm9waWMub3JpZ2luLWNvbmZpZGVuY2VndW5rbm93bmtkZXNjcmlwdGlvbnhmQ2xhdWRlIHByb3ZpZGVkIHRoaXMgZmlsZSBhdCB0aGUgcmVxdWVzdCBvZiBhIHVzZXIgYW5kIG1heSBoYXZlIGNyZWF0ZWQgb3IgbW9kaWZpZWQgdGhlIGZpbGUgY29udGVudHMubXNvZnR3YXJlQWdlbnShZG5hbWVmQ2xhdWRlcmFsbEFjdGlvbnNJbmNsdWRlZPUAAADIanVtYgAAAEBqdW1kY2JvcgARABCAAACqADibcRNjMnBhLmhhc2guZGF0YQAAAAAYYzJzaHhgR2WF9nt9HyeHTCbsLwUAAACAY2JvcqVjYWxnZnNoYTI1NmNwYWRNAAAAAAAAAAAAAAAAAGRoYXNoWCCSMurIUdQ7BRwlf9AO2sf37OSibdQtHsF7mNT5kmvQ5mRuYW1lbmp1bWJmIG1hbmlmZXN0amV4Y2x1c2lvbnOBomVzdGFydBiSZmxlbmd0aBkeBAAAAj5qdW1iAAAAJ2p1bWRjMmNsABEAEIAAAKoAOJtxA2MycGEuY2xhaW0udjIAAAACD2Nib3KlY2FsZ2ZzaGEyNTZpc2lnbmF0dXJleE1zZWxmI2p1bWJmPS9jMnBhL3VybjpjMnBhOmE5ZGI1MjZhLWI0MjYtNGQ1OC05NDg3LTM0ZmRhYWI1MzE4OC9jMnBhLnNpZ25hdHVyZWppbnN0YW5jZUlEeCx4bXA6aWlkOjBlMDM3Mjg2LWE3OTktNDA0NC1hZDJjLWFlZDdiZWVmYzk1MHJjcmVhdGVkX2Fzc2VydGlvbnODomN1cmx4LXNlbGYjanVtYmY9YzJwYS5hc3NlcnRpb25zL2MycGEuaW5ncmVkaWVudC52M2RoYXNoWCBvUNkqikFl6vcE5DSIBTS24zJDMnnSIW+6rJpq8d04HaJjdXJseCpzZWxmI2p1bWJmPWMycGEuYXNzZXJ0aW9ucy9jMnBhLmFjdGlvbnMudjJkaGFzaFggSjaN0R1AhRSQYAHRGYB7sbzFiPgTj7PbhkBfSvhitheiY3VybHgpc2VsZiNqdW1iZj1jMnBhLmFzc2VydGlvbnMvYzJwYS5oYXNoLmRhdGFkaGFzaFgg7WVfcNLF3d4/HSNfaHwbJ/z2xxBjIh5NU9XcmFaqbT10Y2xhaW1fZ2VuZXJhdG9yX2luZm+jZG5hbWVvQW50aHJvcGljIEZpbGVzZ3ZlcnNpb25lMS4wLjBrc3BlY1ZlcnNpb25lMi40LjAAABA4anVtYgAAAChqdW1kYzJjcwARABCAAACqADibcQNjMnBhLnNpZ25hdHVyZQAAABAIY2JvctKEWQISogEmGCFZAgowggIGMIIBjaADAgECAhRA5aAK7sI50L64g/oGQgU9Z1UTADAKBggqhkjOPQQDAzBJMRcwFQYDVQQKEw5BbnRocm9waWMsIFBCQzEuMCwGA1UEAxMlQW50aHJvcGljIENvbnRlbnQgQ3JlZGVudGlhbHMgUm9vdCBDQTAeFw0yNjA4MDcxODQzNTZaFw0yODA4MDYxOTQzNTZaMEQxFzAVBgNVBAoTDkFudGhyb3BpYywgUEJDMSkwJwYDVQQDEyBBbnRocm9waWMgQ2xhdWRlIENvbnRlbnQgU2lnbmluZzBZMBMGByqGSM49AgEGCCqGSM49AwEHA0IABJh6CmvLUBgFFNU0vUKlOVtE6djd17L5SuwX0LemFisBM3dkd/3cyjxFA3Qo5S46fX0/ihY0VZ7mfb9KF703t5OjWDBWMA4GA1UdDwEB/wQEAwIHgDAVBgNVHSUEDjAMBgorBgEEAYPoXgIBMAwGA1UdEwEB/wQCMAAwHwYDVR0jBBgwFoAUzlHiBIFOZFsj+OPEz5o+nMHXXMIwCgYIKoZIzj0EAwMDZwAwZAIwMXMdFJ4BetLLVY7ORuE9noqbbAZOZn/aArXyTwFAZfKrPzxF2vPoJNf1+UCdg1XGAjBwX1zd9WGqYkqmL5SFqw1QySjr1zJfpJM9+1rdDwSPLMOPOjKuiXjoU/pUUeG9RwmhY3BhZFkNngAAAAAAAAAAAAAAAAAAAAAAAAAAAAAAAAAAAAAAAAAAAAAAAAAAAAAAAAAAAAAAAAAAAAAAAAAAAAAAAAAAAAAAAAAAAAAAAAAAAAAAAAAAAAAAAAAAAAAAAAAAAAAAAAAAAAAAAAAAAAAAAAAAAAAAAAAAAAAAAAAAAAAAAAAAAAAAAAAAAAAAAAAAAAAAAAAAAAAAAAAAAAAAAAAAAAAAAAAAAAAAAAAAAAAAAAAAAAAAAAAAAAAAAAAAAAAAAAAAAAAAAAAAAAAAAAAAAAAAAAAAAAAAAAAAAAAAAAAAAAAAAAAAAAAAAAAAAAAAAAAAAAAAAAAAAAAAAAAAAAAAAAAAAAAAAAAAAAAAAAAAAAAAAAAAAAAAAAAAAAAAAAAAAAAAAAAAAAAAAAAAAAAAAAAAAAAAAAAAAAAAAAAAAAAAAAAAAAAAAAAAAAAAAAAAAAAAAAAAAAAAAAAAAAAAAAAAAAAAAAAAAAAAAAAAAAAAAAAAAAAAAAAAAAAAAAAAAAAAAAAAAAAAAAAAAAAAAAAAAAAAAAAAAAAAAAAAAAAAAAAAAAAAAAAAAAAAAAAAAAAAAAAAAAAAAAAAAAAAAAAAAAAAAAAAAAAAAAAAAAAAAAAAAAAAAAAAAAAAAAAAAAAAAAAAAAAAAAAAAAAAAAAAAAAAAAAAAAAAAAAAAAAAAAAAAAAAAAAAAAAAAAAAAAAAAAAAAAAAAAAAAAAAAAAAAAAAAAAAAAAAAAAAAAAAAAAAAAAAAAAAAAAAAAAAAAAAAAAAAAAAAAAAAAAAAAAAAAAAAAAAAAAAAAAAAAAAAAAAAAAAAAAAAAAAAAAAAAAAAAAAAAAAAAAAAAAAAAAAAAAAAAAAAAAAAAAAAAAAAAAAAAAAAAAAAAAAAAAAAAAAAAAAAAAAAAAAAAAAAAAAAAAAAAAAAAAAAAAAAAAAAAAAAAAAAAAAAAAAAAAAAAAAAAAAAAAAAAAAAAAAAAAAAAAAAAAAAAAAAAAAAAAAAAAAAAAAAAAAAAAAAAAAAAAAAAAAAAAAAAAAAAAAAAAAAAAAAAAAAAAAAAAAAAAAAAAAAAAAAAAAAAAAAAAAAAAAAAAAAAAAAAAAAAAAAAAAAAAAAAAAAAAAAAAAAAAAAAAAAAAAAAAAAAAAAAAAAAAAAAAAAAAAAAAAAAAAAAAAAAAAAAAAAAAAAAAAAAAAAAAAAAAAAAAAAAAAAAAAAAAAAAAAAAAAAAAAAAAAAAAAAAAAAAAAAAAAAAAAAAAAAAAAAAAAAAAAAAAAAAAAAAAAAAAAAAAAAAAAAAAAAAAAAAAAAAAAAAAAAAAAAAAAAAAAAAAAAAAAAAAAAAAAAAAAAAAAAAAAAAAAAAAAAAAAAAAAAAAAAAAAAAAAAAAAAAAAAAAAAAAAAAAAAAAAAAAAAAAAAAAAAAAAAAAAAAAAAAAAAAAAAAAAAAAAAAAAAAAAAAAAAAAAAAAAAAAAAAAAAAAAAAAAAAAAAAAAAAAAAAAAAAAAAAAAAAAAAAAAAAAAAAAAAAAAAAAAAAAAAAAAAAAAAAAAAAAAAAAAAAAAAAAAAAAAAAAAAAAAAAAAAAAAAAAAAAAAAAAAAAAAAAAAAAAAAAAAAAAAAAAAAAAAAAAAAAAAAAAAAAAAAAAAAAAAAAAAAAAAAAAAAAAAAAAAAAAAAAAAAAAAAAAAAAAAAAAAAAAAAAAAAAAAAAAAAAAAAAAAAAAAAAAAAAAAAAAAAAAAAAAAAAAAAAAAAAAAAAAAAAAAAAAAAAAAAAAAAAAAAAAAAAAAAAAAAAAAAAAAAAAAAAAAAAAAAAAAAAAAAAAAAAAAAAAAAAAAAAAAAAAAAAAAAAAAAAAAAAAAAAAAAAAAAAAAAAAAAAAAAAAAAAAAAAAAAAAAAAAAAAAAAAAAAAAAAAAAAAAAAAAAAAAAAAAAAAAAAAAAAAAAAAAAAAAAAAAAAAAAAAAAAAAAAAAAAAAAAAAAAAAAAAAAAAAAAAAAAAAAAAAAAAAAAAAAAAAAAAAAAAAAAAAAAAAAAAAAAAAAAAAAAAAAAAAAAAAAAAAAAAAAAAAAAAAAAAAAAAAAAAAAAAAAAAAAAAAAAAAAAAAAAAAAAAAAAAAAAAAAAAAAAAAAAAAAAAAAAAAAAAAAAAAAAAAAAAAAAAAAAAAAAAAAAAAAAAAAAAAAAAAAAAAAAAAAAAAAAAAAAAAAAAAAAAAAAAAAAAAAAAAAAAAAAAAAAAAAAAAAAAAAAAAAAAAAAAAAAAAAAAAAAAAAAAAAAAAAAAAAAAAAAAAAAAAAAAAAAAAAAAAAAAAAAAAAAAAAAAAAAAAAAAAAAAAAAAAAAAAAAAAAAAAAAAAAAAAAAAAAAAAAAAAAAAAAAAAAAAAAAAAAAAAAAAAAAAAAAAAAAAAAAAAAAAAAAAAAAAAAAAAAAAAAAAAAAAAAAAAAAAAAAAAAAAAAAAAAAAAAAAAAAAAAAAAAAAAAAAAAAAAAAAAAAAAAAAAAAAAAAAAAAAAAAAAAAAAAAAAAAAAAAAAAAAAAAAAAAAAAAAAAAAAAAAAAAAAAAAAAAAAAAAAAAAAAAAAAAAAAAAAAAAAAAAAAAAAAAAAAAAAAAAAAAAAAAAAAAAAAAAAAAAAAAAAAAAAAAAAAAAAAAAAAAAAAAAAAAAAAAAAAAAAAAAAAAAAAAAAAAAAAAAAAAAAAAAAAAAAAAAAAAAAAAAAAAAAAAAAAAAAAAAAAAAAAAAAAAAAAAAAAAAAAAAAAAAAAAAAAAAAAAAAAAAAAAAAAAAAAAAAAAAAAAAAAAAAAAAAAAAAAAAAAAAAAAAAAAAAAAAAAAAAAAAAAAAAAAAAAAAAAAAAAAAAAAAAAAAAAAAAAAAAAAAAAAAAAAAAAAAAAAAAAAAAAAAAAAAAAAAAAAAAAAAAAAAAAAAAAAAAAAAAAAAAAAAAAAAAAAAAAAAAAAAAAAAAAAAAAAAAAAAAAAAAAAAAAAAAAAAAAAAAAAAAAAAAAAAAAAAAAAAAAAAAAAAAAAAAAAAAAAAAAAAAAAAAAAAAAAAAAAAAAAAAAAAAAAAAAAAAAAAAAAAAAAAAAAAAAAAAAAAAAAAAAAAAAAAAAAAAAAAAAAAAAAAAAAAAAAAAAAAAAAAAAAAAAAAAAAAAAAAAAAAAAAAAAAAAAAAAAAAAAAAAAAAAAAAAAAAAAAAAAAAAAAAAAAAAAAAAAAAAAAAAAAAAAAAAAAAAAAAAAAAAAAAAAAAAAAAAAAAAAAAAAAAAAAAAAAAAAAAAAAAAAAAAAAAAAAAAAAAAAAAAAAAAAAAAAAAAAAAAAAAAAAAAAAAAAAAAAAAAAAAAAAAAAAAAAAAAAAAAAAAAAAAAAAAAAAAAAAAAAAAAAAAAAAAAAAAAAAAAAAAAAAAAAAAAAAAAAAAAAAAAAAAAAAAAAAAAAAAAAAAAAAAAAAAAAAAAAAAAAAAAAAAAAAAAAAAAAAAAAAAAAAAAAAAAAAAAAAAAAAAAAAAAAAAAAAAAAAAAAAAAAAAAAAAAAAAAAAAAAAAAAAAAAAAAAAAAAAAAAAAAAAAAAAAAAAAAAAAAAAAAAAAAAAAAAAAAAAAAAAAAAAAAAAAAAAAAAAAAAAAAAAAAAAAAAAAAAAAAAAAAAAAAAAAAAAAAAAAAAAAAAAAAAAAAAAAAAAAAAAAAAAAAAAAAAAAAAAAAAAAAAAAAAAAAAAAAAAAAAAAAAAAAAAAAAAAAAAAAAAAAAAAAAAAAAAAAAAAAAAAAAAAAAAAAAAAAAAAAAAAAAAAAAAAAAAAAAAAAAAAAAAAAAAAAAAAAAAAAAAAAAAAAAAAAAAAAAAAAAAAAAAAAAAAAAAAAAAAAAAAAAAAAAAAAAAAAAAAAAAAAAAAAAAAAAAAAAAAAAAAAAAAAAAAAAAAAAAAAAAAAAAAAAAAAAAAAAAAAAAAAAAAAAAAAAAAAAAAAAAAAAAAAAAAAAAAAAAAAAAAAAAAAAAAAAAAAAAAAAAAAAAAAAAAAAAAAAAAAAAAAAAAAAAAAAAAAAAAAAAAAAAAAAAAAAAAAAAAAAAAAAAAAAAAAAAAAAAAAAAAAAAAAAAAAAAAAAAAAAAAAAAAAAAAAAAAAAAAAAAAAAAAAAAAAAAAAAAAAAAAAAAAAAAAAAAAAAAAAAAAAAAAAAAAAAAAAAAAAAAAAAAAAAAAAAAAAAAAAAAAAAAAAAAAAAAAAAAAAAAAAAAAAAAAAAAAAAAAAAAAAAAAAAAAAAAAAAAAAAAAAAAAAAAAAAAAAAAAAAAAAAAAAAAAAAAAAAAAAAAAAAAAAAAAAAAAAAAAAAAAAAAAAAAAAAAAAAAAAAAAAAAAAAAAAAAAAAAAAAAAAAAAAAAAAAAAAAAAAAAAAAAAAAAAAAAAAAAAAAAAAAAAAAAAAAAAAAAAAAAAAAAAAAAAAAAAAAAAAAAAAAAAAAAAAAAAAAAAAAAAAAAAAAAAAAAAAAAAAAAAAAAAAAAAAAAAAAAAAAAAAAAAAAAAAAAAAAAAAAAAAAAAAAAAAAAAAAAAAAAAAAAAAAAAAAAAAAAAAAAAAAAAAAAAAAAAAAAAAAAAAAAAAAAAAAAAAAAAAAAAAAAAAAAAAAAAAAAAAAAAAAAAAAAAAAAAAAAAAAAAAAAAAAAAAAAAAAAAAAAPZYQOs3JedBAPjeqopi4g4jQeL4rZyHmfWimos5zeFQ0YMHuxeNCXTTFYGalt5TBvOQZ3mntiKLv20Mn+RZVkZO6fY=</c2pa:manifest></metadata>
  <title>Milhazes TV</title>
    <defs>
      <clipPath id="mtv-cob"><path d="M24 4.5 C30.8 6.4 33.8 13.6 34 24.2 C34.2 36.6 32.4 50.2 27.7 57.8 C26 58.9 22 58.9 20.3 57.8 C15.6 50.2 13.8 36.6 14 24.2 C14.2 13.6 17.2 6.4 24 4.5 Z"></path></clipPath>
    </defs>
    <g stroke="#23211C" stroke-width="1.5" stroke-linejoin="round" stroke-linecap="round">
      <path d="M22.8 58 C11.6 53.6 3.4 40.4 2 19.6 C6.4 22.4 10.6 27.6 14 33.6 C17.6 40 20.8 49 22.8 58 Z" fill="#8CBB57"></path>
      <path d="M25.2 58 C36.4 53.6 44.6 40.4 46 19.6 C41.6 22.4 37.4 27.6 34 33.6 C30.4 40 27.2 49 25.2 58 Z" fill="#6FA043"></path>
      <g stroke="#4C7330" stroke-width="0.9" fill="none">
        <path d="M21.4 55.4 C17.6 48 12.8 38.6 8.2 28.4"></path>
        <path d="M26.6 55.4 C30.4 48 35.2 38.6 39.8 28.4"></path>
      </g>
      <g stroke="#C9A24B" stroke-width="1.3" fill="none">
        <path d="M22.6 5.6 C19.6 2.6 17 1.4 14.4 1.2"></path>
        <path d="M23.6 4.8 C22.8 2.2 22.2 1.2 21.4 0.6"></path>
        <path d="M24.6 4.8 C25.4 2.2 26.2 1.2 27.2 0.8"></path>
        <path d="M25.6 5.6 C28.6 2.6 31.2 1.6 33.6 1.6"></path>
      </g>
      <path d="M22.6 58 L25.4 58 L25.4 61.4 C25.4 62.7 22.6 62.7 22.6 61.4 Z" fill="#8A7A3E"></path>
      <path d="M24 4.5 C30.8 6.4 33.8 13.6 34 24.2 C34.2 36.6 32.4 50.2 27.7 57.8 C26 58.9 22 58.9 20.3 57.8 C15.6 50.2 13.8 36.6 14 24.2 C14.2 13.6 17.2 6.4 24 4.5 Z" fill="#F3C34C"></path>
    </g>
    <g clip-path="url(#mtv-cob)">
      <g stroke="#B0801E" stroke-width="0.55">
        <rect x="13.50" y="5.76" width="3.00" height="3.9" rx="1.7" fill="#F8CB55"></rect><rect x="17.62" y="4.44" width="3.75" height="3.9" rx="1.7" fill="#FFDE8E"></rect><rect x="22.00" y="4.00" width="4.00" height="3.9" rx="1.7" fill="#F8CB55"></rect><rect x="26.62" y="4.44" width="3.75" height="3.9" rx="1.7" fill="#EFB63C"></rect><rect x="31.50" y="5.76" width="3.00" height="3.9" rx="1.7" fill="#DDA02B"></rect>
        <rect x="11.53" y="10.96" width="2.44" height="3.9" rx="1.7" fill="#F8CB55"></rect><rect x="15.53" y="9.19" width="3.44" height="3.9" rx="1.7" fill="#F8CB55"></rect><rect x="19.78" y="8.31" width="3.94" height="3.9" rx="1.7" fill="#FFDE8E"></rect><rect x="24.28" y="8.31" width="3.94" height="3.9" rx="1.7" fill="#F8CB55"></rect><rect x="29.03" y="9.19" width="3.44" height="3.9" rx="1.7" fill="#DDA02B"></rect><rect x="34.03" y="10.96" width="2.44" height="3.9" rx="1.7" fill="#C8871F"></rect>
        <rect x="13.50" y="14.16" width="3.00" height="3.9" rx="1.7" fill="#F8CB55"></rect><rect x="17.62" y="12.84" width="3.75" height="3.9" rx="1.7" fill="#FFDE8E"></rect><rect x="22.00" y="12.40" width="4.00" height="3.9" rx="1.7" fill="#F8CB55"></rect><rect x="26.62" y="12.84" width="3.75" height="3.9" rx="1.7" fill="#EFB63C"></rect><rect x="31.50" y="14.16" width="3.00" height="3.9" rx="1.7" fill="#DDA02B"></rect>
        <rect x="11.53" y="19.36" width="2.44" height="3.9" rx="1.7" fill="#F8CB55"></rect><rect x="15.53" y="17.59" width="3.44" height="3.9" rx="1.7" fill="#F8CB55"></rect><rect x="19.78" y="16.71" width="3.94" height="3.9" rx="1.7" fill="#FFDE8E"></rect><rect x="24.28" y="16.71" width="3.94" height="3.9" rx="1.7" fill="#F8CB55"></rect><rect x="29.03" y="17.59" width="3.44" height="3.9" rx="1.7" fill="#DDA02B"></rect><rect x="34.03" y="19.36" width="2.44" height="3.9" rx="1.7" fill="#C8871F"></rect>
        <rect x="13.50" y="22.56" width="3.00" height="3.9" rx="1.7" fill="#F8CB55"></rect><rect x="17.62" y="21.24" width="3.75" height="3.9" rx="1.7" fill="#FFDE8E"></rect><rect x="22.00" y="20.80" width="4.00" height="3.9" rx="1.7" fill="#F8CB55"></rect><rect x="26.62" y="21.24" width="3.75" height="3.9" rx="1.7" fill="#EFB63C"></rect><rect x="31.50" y="22.56" width="3.00" height="3.9" rx="1.7" fill="#DDA02B"></rect>
        <rect x="11.53" y="27.76" width="2.44" height="3.9" rx="1.7" fill="#F8CB55"></rect><rect x="15.53" y="25.99" width="3.44" height="3.9" rx="1.7" fill="#F8CB55"></rect><rect x="19.78" y="25.11" width="3.94" height="3.9" rx="1.7" fill="#FFDE8E"></rect><rect x="24.28" y="25.11" width="3.94" height="3.9" rx="1.7" fill="#F8CB55"></rect><rect x="29.03" y="25.99" width="3.44" height="3.9" rx="1.7" fill="#DDA02B"></rect><rect x="34.03" y="27.76" width="2.44" height="3.9" rx="1.7" fill="#C8871F"></rect>
        <rect x="13.50" y="30.96" width="3.00" height="3.9" rx="1.7" fill="#F8CB55"></rect><rect x="17.62" y="29.64" width="3.75" height="3.9" rx="1.7" fill="#FFDE8E"></rect><rect x="22.00" y="29.20" width="4.00" height="3.9" rx="1.7" fill="#F8CB55"></rect><rect x="26.62" y="29.64" width="3.75" height="3.9" rx="1.7" fill="#EFB63C"></rect><rect x="31.50" y="30.96" width="3.00" height="3.9" rx="1.7" fill="#DDA02B"></rect>
        <rect x="11.53" y="36.16" width="2.44" height="3.9" rx="1.7" fill="#F8CB55"></rect><rect x="15.53" y="34.39" width="3.44" height="3.9" rx="1.7" fill="#F8CB55"></rect><rect x="19.78" y="33.51" width="3.94" height="3.9" rx="1.7" fill="#FFDE8E"></rect><rect x="24.28" y="33.51" width="3.94" height="3.9" rx="1.7" fill="#F8CB55"></rect><rect x="29.03" y="34.39" width="3.44" height="3.9" rx="1.7" fill="#DDA02B"></rect><rect x="34.03" y="36.16" width="2.44" height="3.9" rx="1.7" fill="#C8871F"></rect>
        <rect x="13.50" y="39.36" width="3.00" height="3.9" rx="1.7" fill="#F8CB55"></rect><rect x="17.62" y="38.04" width="3.75" height="3.9" rx="1.7" fill="#FFDE8E"></rect><rect x="22.00" y="37.60" width="4.00" height="3.9" rx="1.7" fill="#F8CB55"></rect><rect x="26.62" y="38.04" width="3.75" height="3.9" rx="1.7" fill="#EFB63C"></rect><rect x="31.50" y="39.36" width="3.00" height="3.9" rx="1.7" fill="#DDA02B"></rect>
        <rect x="11.53" y="44.56" width="2.44" height="3.9" rx="1.7" fill="#F8CB55"></rect><rect x="15.53" y="42.79" width="3.44" height="3.9" rx="1.7" fill="#F8CB55"></rect><rect x="19.78" y="41.91" width="3.94" height="3.9" rx="1.7" fill="#FFDE8E"></rect><rect x="24.28" y="41.91" width="3.94" height="3.9" rx="1.7" fill="#F8CB55"></rect><rect x="29.03" y="42.79" width="3.44" height="3.9" rx="1.7" fill="#DDA02B"></rect><rect x="34.03" y="44.56" width="2.44" height="3.9" rx="1.7" fill="#C8871F"></rect>
        <rect x="13.50" y="47.76" width="3.00" height="3.9" rx="1.7" fill="#F8CB55"></rect><rect x="17.62" y="46.44" width="3.75" height="3.9" rx="1.7" fill="#FFDE8E"></rect><rect x="22.00" y="46.00" width="4.00" height="3.9" rx="1.7" fill="#F8CB55"></rect><rect x="26.62" y="46.44" width="3.75" height="3.9" rx="1.7" fill="#EFB63C"></rect><rect x="31.50" y="47.76" width="3.00" height="3.9" rx="1.7" fill="#DDA02B"></rect>
        <rect x="11.53" y="52.96" width="2.44" height="3.9" rx="1.7" fill="#F8CB55"></rect><rect x="15.53" y="51.19" width="3.44" height="3.9" rx="1.7" fill="#F8CB55"></rect><rect x="19.78" y="50.31" width="3.94" height="3.9" rx="1.7" fill="#FFDE8E"></rect><rect x="24.28" y="50.31" width="3.94" height="3.9" rx="1.7" fill="#F8CB55"></rect><rect x="29.03" y="51.19" width="3.44" height="3.9" rx="1.7" fill="#DDA02B"></rect><rect x="34.03" y="52.96" width="2.44" height="3.9" rx="1.7" fill="#C8871F"></rect>
        <rect x="13.50" y="56.16" width="3.00" height="3.9" rx="1.7" fill="#F8CB55"></rect><rect x="17.62" y="54.84" width="3.75" height="3.9" rx="1.7" fill="#FFDE8E"></rect><rect x="22.00" y="54.40" width="4.00" height="3.9" rx="1.7" fill="#F8CB55"></rect><rect x="26.62" y="54.84" width="3.75" height="3.9" rx="1.7" fill="#EFB63C"></rect><rect x="31.50" y="56.16" width="3.00" height="3.9" rx="1.7" fill="#DDA02B"></rect>
        <rect x="11.53" y="61.36" width="2.44" height="3.9" rx="1.7" fill="#F8CB55"></rect><rect x="15.53" y="59.59" width="3.44" height="3.9" rx="1.7" fill="#F8CB55"></rect><rect x="19.78" y="58.71" width="3.94" height="3.9" rx="1.7" fill="#FFDE8E"></rect><rect x="24.28" y="58.71" width="3.94" height="3.9" rx="1.7" fill="#F8CB55"></rect><rect x="29.03" y="59.59" width="3.44" height="3.9" rx="1.7" fill="#DDA02B"></rect><rect x="34.03" y="61.36" width="2.44" height="3.9" rx="1.7" fill="#C8871F"></rect>
      </g>
      <path d="M31 6 C35 18 35 44 29.5 58.5 L36 58.5 L36 6 Z" fill="#23211C" opacity="0.09"></path>
    </g>
    <path d="M24 4.5 C30.8 6.4 33.8 13.6 34 24.2 C34.2 36.6 32.4 50.2 27.7 57.8 C26 58.9 22 58.9 20.3 57.8 C15.6 50.2 13.8 36.6 14 24.2 C14.2 13.6 17.2 6.4 24 4.5 Z" fill="none" stroke="#23211C" stroke-width="1.6" stroke-linejoin="round"></path>
    <path d="M24.4 58.6 C18.4 55.6 13.2 48.4 10.6 39.4 C15.6 43.8 20.8 51 24.4 57.4 Z" fill="#5C8A3A" stroke="#23211C" stroke-width="1.5" stroke-linejoin="round"></path>
</svg>